<svg xmlns="http://www.w3.org/2000/svg" viewBox="0 0 512 512">
    <path fill="#752B8D" d="M91.8,61.4c75.6-64.8,189.1-74.3,278.8-31.5c23.8,11.3,45.9,24.7,61,41.3c49.7,54.5,25.7,46.9,34.1,61.8
	l-217.7,35.8c8.5-6.1,24-13.8,31.9-24.2c7.5-9.6,6.7-18.2,3.1-22.1c-21.6-24.1-93.1,4.7-126,61.3C68.7,335.3,272,480.3,443.2,365.1
	c-5.8,6.2,23.6,7-29.1,52.1c-52.7,45.2-249.8,75.6-337.2-20.2C-10.5,301.3-7.1,146,91.8,61.4L91.8,61.4z"/>
    <path fill="#d91bd8" d="M80.9,71.3C-65.8,302.5,280.2,531.1,483.2,332.5c12.7-12.4,34,0.6,27.7,17c-13.8,35.7-32.9,60.3-52.2,80.5
	c-78.3,81.8-195.1,103.8-299.3,59.7C70.2,452,13.6,375.3,2.3,292.9C-8.6,212.4,19.2,126.7,80.9,71.3L80.9,71.3z"/>
    <path fill="#d643d4" d="M431.5,290.7c-27.1,25.7-74.3,49.3-119.8,50.8c-46.4,1.6-96.5-13.6-111.7-45.4c-17.9-37.5,6.1-94.8,45.4-125.5
	c32.7-25.6,148.9-63.1,143.4-106.8C380.9,2.2,222.8-4,169.2,18.3C233.9-14,400-13.9,466.7,105.1C503.4,170.6,490.2,235,431.5,290.7
	L431.5,290.7z"/>
    <path d="M303.9,307.5c-9.6-6.2-18.7-14.2-26.5-19.7c-21.8-15.2-26.6,4.1-6.9,13.5C283.3,307.4,301.7,307.8,303.9,307.5
	L303.9,307.5z"/>
    <path d="M256.2,217c-0.7,11.1,0.5,23,0.3,32.3c-0.6,26-19.4,18.1-15.3-2.8C243.9,233.1,254.6,218.6,256.2,217L256.2,217
	z"/>
</svg>