<svg xmlns="http://www.w3.org/2000/svg" width="18" height="18" viewBox="0 0 512 512">
    <path fill="#a0a5ab" d="M483.2,332.5c-35.2,34.4-74.6,56-115.1,67c-0.3,0.1-0.6,0.2-0.9,0.2C177,450.6-34.5,267.1,76.3,78.9
	c-53.6,115.5,8.6,227.9,108.2,281.6c-48.2-42.5-67-109-27.6-176.7c32.9-56.6,104.5-85.4,126-61.3c1.1,1.2,1.9,2.8,2.3,4.7
	c41.7-19.8,84-42.1,76.5-64.3C345.6,15.3,248.8,8.2,174.9,16.2C233.1-3.5,381.1,4.3,388.7,63.8c5.2,40.6-95.1,76-135.4,101.3
	c-0.7,0.4-1.4,0.9-2,1.3c-1.2,0.8-2.3,1.5-3.4,2.3c-0.9,0.7-1.8,1.3-2.6,1.9c-39.3,30.7-63.3,87.9-45.3,125.5
	c15.2,31.8,65.3,46.9,111.7,45.4c45.4-1.5,92.7-25.1,119.8-50.8c58.7-55.7,71.9-120.1,35.2-185.6C401.6-11.1,241.8-13.9,174,16
	c-0.6,0.3-1.2,0.6-1.9,0.8c0.4-0.2,0.8-0.4,1.2-0.5c-0.1,0-0.3,0-0.4,0c-29.6,9.5-57.3,24.5-81.2,45c-3.8,3.2-7.4,6.5-10.9,10
	C19.2,126.7-8.6,212.4,2.3,292.9c11.2,82.4,67.9,159.1,157,196.8c104.2,44.1,221,22,299.3-59.7c19.3-20.2,38.5-44.8,52.2-80.5
	C517.2,333.1,495.8,320.1,483.2,332.5z M174.8,16.2c-0.7,0.2-1.4,0.5-2.1,0.7C173.4,16.7,174.1,16.4,174.8,16.2z M171.5,17.2
	c-0.8,0.4-1.5,0.7-2.3,1.1c0.9-0.4,1.7-0.7,2.6-1c-0.9,0.3-1.8,0.7-2.6,1C170,17.9,170.7,17.5,171.5,17.2z M77.8,76.4
	c0.2-0.3,0.3-0.5,0.5-0.8C78.1,75.8,77.9,76.1,77.8,76.4z"/>
</svg>
